<svg class="animated" id="freepik_stories-meditation" xmlns="http://www.w3.org/2000/svg" viewBox="0 0 500 500" version="1.1" xmlns:xlink="http://www.w3.org/1999/xlink" xmlns:svgjs="http://svgjs.com/svgjs"><style>svg#freepik_stories-meditation:not(.animated) .animable {opacity: 0;}svg#freepik_stories-meditation.animated #freepik--background-complete--inject-62 {animation: 1s 1 forwards cubic-bezier(.36,-0.01,.5,1.38) fadeIn,1.5s Infinite  linear shake;animation-delay: 0s,-10.5s;}svg#freepik_stories-meditation.animated #freepik--Shadow--inject-62 {animation: 1s 1 forwards cubic-bezier(.36,-0.01,.5,1.38) fadeIn;animation-delay: 0s;}svg#freepik_stories-meditation.animated #freepik--Carpet--inject-62 {animation: 1s 1 forwards cubic-bezier(.36,-0.01,.5,1.38) fadeIn;animation-delay: 0s;}svg#freepik_stories-meditation.animated #freepik--Character--inject-62 {animation: 1s 1 forwards cubic-bezier(.36,-0.01,.5,1.38) slideUp,1.5s Infinite  linear floating;animation-delay: 0s,1s;}            @keyframes fadeIn {                0% {                    opacity: 0;                }                100% {                    opacity: 1;                }            }                    @keyframes shake {                10%, 90% {                    transform: translate3d(-1px, 0, 0);                  }                  20%, 80% {                    transform: translate3d(2px, 0, 0);                  }                  30%, 50%, 70% {                    transform: translate3d(-4px, 0, 0);                  }                  40%, 60% {                    transform: translate3d(4px, 0, 0);                  }            }                    @keyframes slideUp {                0% {                    opacity: 0;                    transform: translateY(30px);                }                100% {                    opacity: 1;                    transform: inherit;                }            }                    @keyframes floating {                0% {                    opacity: 1;                    transform: translateY(0px);                }                50% {                    transform: translateY(-10px);                }                100% {                    opacity: 1;                    transform: translateY(0px);                }            }        </style><g id="freepik--background-complete--inject-62" class="animable" style="transform-origin: 250px 226.87px;"><rect y="382.4" width="500" height="0.25" style="fill: rgb(235, 235, 235); transform-origin: 250px 382.525px;" id="el60cyj0g918t" class="animable"></rect><rect x="416.78" y="398.49" width="33.12" height="0.25" style="fill: rgb(235, 235, 235); transform-origin: 433.34px 398.615px;" id="el3d0qiqtk2u8" class="animable"></rect><rect x="239.64" y="395.44" width="30.22" height="0.25" style="fill: rgb(235, 235, 235); transform-origin: 254.75px 395.565px;" id="el28ps0vtidufk" class="animable"></rect><rect x="345.89" y="389.21" width="69.89" height="0.25" style="fill: rgb(235, 235, 235); transform-origin: 380.835px 389.335px;" id="elniscx8fapf" class="animable"></rect><rect x="52.46" y="390.89" width="167.14" height="0.25" style="fill: rgb(235, 235, 235); transform-origin: 136.03px 391.015px;" id="elsrkee8kn7zc" class="animable"></rect><rect x="228.5" y="390.89" width="6.33" height="0.25" style="fill: rgb(235, 235, 235); transform-origin: 231.665px 391.015px;" id="elwzkxf7hlf3" class="animable"></rect><path d="M237,337.8H43.91a5.71,5.71,0,0,1-5.7-5.71V60.66A5.71,5.71,0,0,1,43.91,55H237a5.71,5.71,0,0,1,5.71,5.71V332.09A5.71,5.71,0,0,1,237,337.8ZM43.91,55.2a5.46,5.46,0,0,0-5.45,5.46V332.09a5.46,5.46,0,0,0,5.45,5.46H237a5.47,5.47,0,0,0,5.46-5.46V60.66A5.47,5.47,0,0,0,237,55.2Z" style="fill: rgb(235, 235, 235); transform-origin: 140.46px 196.4px;" id="elgbgl67757d6" class="animable"></path><path d="M453.31,337.8H260.21a5.72,5.72,0,0,1-5.71-5.71V60.66A5.72,5.72,0,0,1,260.21,55h193.1A5.71,5.71,0,0,1,459,60.66V332.09A5.71,5.71,0,0,1,453.31,337.8ZM260.21,55.2a5.47,5.47,0,0,0-5.46,5.46V332.09a5.47,5.47,0,0,0,5.46,5.46h193.1a5.47,5.47,0,0,0,5.46-5.46V60.66a5.47,5.47,0,0,0-5.46-5.46Z" style="fill: rgb(235, 235, 235); transform-origin: 356.75px 196.4px;" id="elh2d70neupcg" class="animable"></path><g id="eleqw9azjlcn5"><rect x="420.28" y="280.69" width="23.58" height="97.13" style="fill: rgb(240, 240, 240); transform-origin: 432.07px 329.255px; transform: rotate(180deg);" class="animable"></rect></g><g id="elnddyto78ac"><rect x="274.04" y="377.81" width="165.29" height="4.58" style="fill: rgb(240, 240, 240); transform-origin: 356.685px 380.1px; transform: rotate(180deg);" class="animable"></rect></g><rect x="269.51" y="280.69" width="150.77" height="97.13" style="fill: rgb(245, 245, 245); transform-origin: 344.895px 329.255px;" id="ellmxgngcvk" class="animable"></rect><rect x="278.78" y="317.39" width="132.22" height="23.72" style="fill: rgb(240, 240, 240); transform-origin: 344.89px 329.25px;" id="el49q0iz2ez6r" class="animable"></rect><rect x="278.78" y="345.44" width="132.22" height="23.72" style="fill: rgb(240, 240, 240); transform-origin: 344.89px 357.3px;" id="elpx7rrada86d" class="animable"></rect><path d="M310.38,320h69a1.64,1.64,0,0,0,1.63-1.63h0a1.63,1.63,0,0,0-1.63-1.62h-69a1.63,1.63,0,0,0-1.63,1.62h0A1.63,1.63,0,0,0,310.38,320Z" style="fill: rgb(245, 245, 245); transform-origin: 344.88px 318.375px;" id="el1v0c2ztht3k" class="animable"></path><rect x="278.78" y="289.34" width="132.22" height="23.72" style="fill: rgb(240, 240, 240); transform-origin: 344.89px 301.2px;" id="elc29ejpjus6k" class="animable"></rect><path d="M310.38,291.94h69a1.64,1.64,0,0,0,1.63-1.63h0a1.63,1.63,0,0,0-1.63-1.62h-69a1.63,1.63,0,0,0-1.63,1.62h0A1.63,1.63,0,0,0,310.38,291.94Z" style="fill: rgb(245, 245, 245); transform-origin: 344.88px 290.315px;" id="el1ow69ybzyxu" class="animable"></path><path d="M310.38,348h69a1.64,1.64,0,0,0,1.63-1.63h0a1.63,1.63,0,0,0-1.63-1.62h-69a1.63,1.63,0,0,0-1.63,1.62h0A1.63,1.63,0,0,0,310.38,348Z" style="fill: rgb(245, 245, 245); transform-origin: 344.88px 346.375px;" id="elo0tepto5bpr" class="animable"></path><g id="elr7cyn0mft1b"><rect x="266.37" y="272.71" width="153.91" height="7.98" style="fill: rgb(240, 240, 240); transform-origin: 343.325px 276.7px; transform: rotate(180deg);" class="animable"></rect></g><rect x="420.28" y="272.71" width="26.88" height="7.98" style="fill: rgb(230, 230, 230); transform-origin: 433.72px 276.7px;" id="elxeutjxsbn5c" class="animable"></rect><path d="M396.63,252.62c0,11.1-9.76,20.09-21.76,20.09s-21.76-9-21.76-20.09c0-6.55,3.38-14.45,8.67-19.84H388C393.24,238.17,396.63,246.07,396.63,252.62Z" style="fill: rgb(230, 230, 230); transform-origin: 374.87px 252.745px;" id="el6iu62kj3b4o" class="animable"></path><path d="M426.76,256c0,9.23-8.11,16.7-18.09,16.7s-18.08-7.47-18.08-16.7c0-5.44,2.81-12,7.2-16.49h21.76C423.94,244,426.76,250.57,426.76,256Z" style="fill: rgb(240, 240, 240); transform-origin: 408.675px 256.105px;" id="el5s2yccggzwp" class="animable"></path><polygon points="325.38 272.58 342.5 272.58 340.38 206.27 325.38 206.27 325.38 272.58" style="fill: rgb(240, 240, 240); transform-origin: 333.94px 239.425px;" id="elz8v4c091kjd" class="animable"></polygon><polygon points="295.68 272.58 337.35 272.58 342.5 196.38 300.83 196.38 295.68 272.58" style="fill: rgb(230, 230, 230); transform-origin: 319.09px 234.48px;" id="el2v544dxn5je" class="animable"></polygon><polygon points="294.71 272.58 336.38 272.58 341.53 196.38 299.86 196.38 294.71 272.58" style="fill: rgb(240, 240, 240); transform-origin: 318.12px 234.48px;" id="elp1lodbjhwv" class="animable"></polygon><path d="M330.87,263.39,334.48,206a3.12,3.12,0,0,0-3.12-3.32H308.49a3.13,3.13,0,0,0-3.12,2.93L301.75,263a3.13,3.13,0,0,0,3.12,3.32h22.88A3.14,3.14,0,0,0,330.87,263.39Z" style="fill: rgb(255, 255, 255); transform-origin: 318.115px 234.5px;" id="eleeqj03chos" class="animable"></path><rect x="70.78" y="107.95" width="148.81" height="189.38" style="fill: rgb(230, 230, 230); transform-origin: 145.185px 202.64px;" id="elbwftk9d1syn" class="animable"></rect><rect x="68.94" y="107.95" width="148.81" height="189.38" style="fill: rgb(250, 250, 250); transform-origin: 143.345px 202.64px;" id="elgazw2x13ly9" class="animable"></rect><g id="el0a8v7fl7ftar"><rect x="52.82" y="132.4" width="181.05" height="140.48" style="fill: rgb(255, 255, 255); transform-origin: 143.345px 202.64px; transform: rotate(90deg);" class="animable"></rect></g><g id="elkkbnxi24p1"><circle cx="143.34" cy="257.45" r="18.99" style="fill: rgb(250, 250, 250); transform-origin: 143.34px 257.45px; transform: rotate(-80.78deg);" class="animable"></circle></g><g id="el196i5t10wv1"><circle cx="143.34" cy="202.64" r="18.99" style="fill: rgb(235, 235, 235); transform-origin: 143.34px 202.64px; transform: rotate(-22.5deg);" class="animable"></circle></g><g id="elh8jr8ypx08"><circle cx="143.34" cy="147.83" r="18.99" style="fill: rgb(224, 224, 224); transform-origin: 143.34px 147.83px; transform: rotate(-80.78deg);" class="animable"></circle></g><circle cx="363.78" cy="120.59" r="44.9" style="fill: rgb(224, 224, 224); transform-origin: 363.78px 120.59px;" id="elfj3uvumgi1u" class="animable"></circle><circle cx="362.34" cy="120.59" r="44.9" style="fill: rgb(240, 240, 240); transform-origin: 362.34px 120.59px;" id="elccnx148vuh" class="animable"></circle><path d="M401.61,120.59a39.3,39.3,0,1,1-8.51-24.38l.11.13A39,39,0,0,1,401.61,120.59Z" style="fill: rgb(250, 250, 250); transform-origin: 362.31px 120.633px;" id="elpv7x3o1u6gd" class="animable"></path><path d="M366,119.14a2.78,2.78,0,0,1-.31,3L351,140.58a2.79,2.79,0,1,1-4.37-3.46l13-16.4-10.36-9.13a2.79,2.79,0,1,1,3.69-4.18l12.34,10.88A2.79,2.79,0,0,1,366,119.14Z" style="fill: rgb(224, 224, 224); transform-origin: 356.123px 124.19px;" id="elv4l71lmgfn" class="animable"></path></g><g id="freepik--Shadow--inject-62" class="animable" style="transform-origin: 250px 416.24px;"><ellipse id="freepik--path--inject-62" cx="250" cy="416.24" rx="193.89" ry="11.32" style="fill: rgb(245, 245, 245); transform-origin: 250px 416.24px;" class="animable"></ellipse></g><g id="freepik--Carpet--inject-62" class="animable animator-active" style="transform-origin: 250px 415.64px;"><polygon points="355.02 419.95 144.98 419.95 152.07 411.33 347.93 411.33 355.02 419.95" style="fill: rgb(97, 245, 182); transform-origin: 250px 415.64px;" id="elox0u6c1t6mg" class="animable"></polygon><g id="elascwi096tap"><polygon points="355.02 419.95 144.98 419.95 152.07 411.33 347.93 411.33 355.02 419.95" style="fill: rgb(255, 255, 255); opacity: 0.6; transform-origin: 250px 415.64px;" class="animable"></polygon></g></g><g id="freepik--Character--inject-62" class="animable" style="transform-origin: 255.78px 280.968px;"><path d="M189.42,336.84c26.11-.66,43.05,19.23,43.05,19.23-2.56,8.15-4.2,14.25-4.2,14.25-14.28-2.7-30.52-3.79-43.89-7.27-12.07-3.14-13.33-19.45-12-26.3s8.18-8.45,14.92-10.68c7.69-2.55,22.35-2.75,32.86-2.79,11.08,0,25.64,1,33.18,2.7,0,0,16-.71,27.89-.51,6.94-1.17,2.76,10.14-8.26,19.78A49.19,49.19,0,0,1,232.6,357h-.09" style="fill: rgb(38, 50, 56); transform-origin: 228.29px 346.8px;" id="el56gfx2v1a72" class="animable"></path><path d="M315,336.84c-26.11-.66-49.28,19.23-49.28,19.23,2.56,8.15,4.2,14.25,4.2,14.25,14.28-2.7,36.75-3.79,50.12-7.27,12.08-3.14,13.33-19.45,12-26.3s-8.18-8.45-14.92-10.68c-7.69-2.55-22.35-2.75-32.86-2.79-11.08,0-25.64,1-33.18,2.7,0,0-16-.71-27.88-.51-6.95-1.17-2.77,10.14,8.25,19.78A49.19,49.19,0,0,0,271.77,357h.09" style="fill: rgb(38, 50, 56); transform-origin: 276.132px 346.8px;" id="elzgsc8cozunh" class="animable"></path><path d="M232.59,266q-3.39,11.56-7.15,23c-1.25,3.82-2.52,7.63-3.84,11.43S219,308,217.54,311.84l-.18.48-.24.58c-.16.38-.34.74-.52,1.1a20,20,0,0,1-1.2,1.94,20.73,20.73,0,0,1-2.71,3.09,34.48,34.48,0,0,1-5.75,4.31,68.15,68.15,0,0,1-11.76,5.51,126.77,126.77,0,0,1-24.05,6.09l-1.53-6.48c3.64-1.3,7.39-2.68,11-4.18s7.19-3,10.6-4.74a66,66,0,0,0,9.53-5.61c2.82-2,5.07-4.51,5.3-6L212.71,285c2.26-7.67,4.58-15.34,7-23Z" style="fill: rgb(206, 122, 99); transform-origin: 201.095px 298.47px;" id="el2j4gjzxas46" class="animable"></path><path d="M172.21,328.78,160,325.68l5.82,11.74s8.28.36,11-4.25Z" style="fill: rgb(206, 122, 99); transform-origin: 168.41px 331.553px;" id="elew3ujnjrz84" class="animable"></path><path d="M258.65,182.63c-4.38-3.17-11.58-5.83-14.48-1s-5.4,15-10.23,17.46-10.58,12.33-7.42,21-9.33,6.33-10,19.5,18.08,19.83,29.92,13.33,20.17-40.42,19.42-53.83S258.65,182.63,258.65,182.63Z" style="fill: rgb(38, 50, 56); transform-origin: 241.205px 217.21px;" id="ela1y4pw8nyqt" class="animable"></path><path d="M253.15,182.05s6.42-9.75,18.24-4.72c13.8,5.87,9.47,12.2,12,25.58s17.95,15.77,17.25,34.39c-1.19,31.71-29.25,25.83-37,17.41s.83-39.33.83-39.33Z" style="fill: rgb(38, 50, 56); transform-origin: 276.907px 218.634px;" id="elyv92t2mnd1r" class="animable"></path><polygon points="150.1 330.29 155.51 339.86 165.81 337.57 159.98 325.83 150.1 330.29" style="fill: rgb(206, 122, 99); transform-origin: 157.955px 332.845px;" id="el9o26ylz5dg8" class="animable"></polygon><path d="M224.1,247.86c-5.31,1.36-9,23.22-9,23.22l14.64,10s14-22.06,10-27.9C235.41,247.05,231.86,245.89,224.1,247.86Z" style="fill: rgb(97, 245, 182); transform-origin: 227.779px 264.03px;" id="elp0e74u31g0m" class="animable"></path><g id="elxb6o3q2n3p"><path d="M223.62,255.81,235,258.45l1.09,11.12A129.88,129.88,0,0,1,229.71,281l-8.88-6C221.21,269.89,222.18,259.27,223.62,255.81Z" style="opacity: 0.2; transform-origin: 228.46px 268.405px;" class="animable"></path></g><path d="M224.1,247.86S218,250,230.26,325.68h52.37c-.88-21.31-.91-34.45,9.28-78.19a154,154,0,0,0-22.24-2.93c-8.81-.43-16-.71-23.77,0C235.68,245.49,224.1,247.86,224.1,247.86Z" style="fill: rgb(97, 245, 182); transform-origin: 257.246px 284.903px;" id="elu9m00u8yen" class="animable"></path><g id="eldfglyud8tk"><path d="M279.59,267.8l6.76,5.75c-1.45,7.65-2.41,14-3,19.69C282.05,287.56,278.84,272.14,279.59,267.8Z" style="opacity: 0.2; transform-origin: 282.914px 280.52px;" class="animable"></path></g><path d="M267.32,217.79c-1.5,7.65-3,21.66,2.35,26.77,0,0-5,11.46-18.25,11.46s-5.52-11.46-5.52-11.46c8.53-2,8.31-8.37,6.82-14.31Z" style="fill: rgb(206, 122, 99); transform-origin: 256.664px 236.905px;" id="elou4ytxd5ff" class="animable"></path><path d="M269.67,244.56c-8.81-.43-16-.71-23.78,0-3.68.33-7.53.85-10.95,1.38-2.26,4.09-11.23,22.48,10.78,22.48,23.08,0,32.7-20.22,33.9-23C276.53,245.06,273.11,244.73,269.67,244.56Z" style="fill: rgb(206, 122, 99); transform-origin: 255.418px 256.273px;" id="elvqvbkrbisz" class="animable"></path><g id="elympfoijljr8"><path d="M261.37,222.87l-8.64,7.37a25.39,25.39,0,0,1,.73,4.22c3.26-.47,7.74-4.05,8.08-7.46A11.48,11.48,0,0,0,261.37,222.87Z" style="opacity: 0.2; transform-origin: 257.191px 228.665px;" class="animable"></path></g><path d="M277.4,203.33C275,215.9,274.23,221.27,267,226.94c-10.88,8.54-25.79,2.83-27.18-10.21-1.25-11.73,2.91-30.31,16-33.75A17.45,17.45,0,0,1,277.4,203.33Z" style="fill: rgb(206, 122, 99); transform-origin: 258.68px 206.692px;" id="el6vnl93pnz9x" class="animable"></path><path d="M255,181.63c-4.51,2.53-1.52,7,6.62,10.17s8.63,3.75,7.3,10.33,10.53,12.67,10.68,5.87,2.57-19.7-3.76-23.29S259.77,179,255,181.63Z" style="fill: rgb(38, 50, 56); transform-origin: 266.537px 195.717px;" id="elsx8bellryrk" class="animable"></path><path d="M254.32,184.8c-4,1.29-13.09,11.16-12.42,7.91s2.37-7.75,7.17-9.41a26,26,0,0,1,7.08-1.71Z" style="fill: rgb(38, 50, 56); transform-origin: 249.007px 187.477px;" id="el8w7qf2mk5xp" class="animable"></path><path d="M279.78,213.89a9.7,9.7,0,0,1-5.48,4.58c-3.11,1-4.68-1.69-3.83-4.63.77-2.65,3.3-6.36,6.43-6.08S281.19,211.23,279.78,213.89Z" style="fill: rgb(206, 122, 99); transform-origin: 275.307px 213.214px;" id="el1s5tsahb9a6" class="animable"></path><path d="M229.69,368.83l4.79-13.67c.18-.5,2.25.81,2.76.91,0,0,7.51-1,10.5-.16s2.86,2.76,2.31,4.8c-1.27,4.74-3.32,5.64-4.64,11.92-.81,3.83-1.47,7.36-5.66,11-4,3.47-7.84,3.26-6.26-1,3.8-10.16,2-8.65-.4-12.43C232.65,369.56,229.43,369.55,229.69,368.83Z" style="fill: rgb(206, 122, 99); transform-origin: 240.018px 370.547px;" id="el1c44z5px0bj" class="animable"></path><path d="M267.33,368.83l-4.8-13.67c-.18-.5-2.25.81-2.76.91,0,0-7.51-1-10.5-.16s-2.86,2.76-2.31,4.8c1.27,4.74,3.32,5.64,4.64,11.92.81,3.83,1.47,7.36,5.66,11,4,3.47,7.84,3.26,6.26-1-3.8-10.16-2-8.65.4-12.43C264.36,369.56,267.58,369.55,267.33,368.83Z" style="fill: rgb(206, 122, 99); transform-origin: 256.997px 370.547px;" id="el9pmwiu9uk7" class="animable"></path><polygon points="231.33 372.09 236.16 353.96 229.8 351.33 220.83 370.8 231.33 372.09" style="fill: rgb(97, 245, 182); transform-origin: 228.495px 361.71px;" id="elf0y4cjvy8ei" class="animable"></polygon><polygon points="266.05 372.47 258.46 354.14 264.33 351.73 276.22 369.56 266.05 372.47" style="fill: rgb(97, 245, 182); transform-origin: 267.34px 362.1px;" id="elwyyar93k52r" class="animable"></polygon><path d="M248.7,204.36s-2.32,4.21-4.53,6.1c1.2,1.45,3.59,1.17,3.59,1.17Z" style="fill: rgb(186, 77, 60); transform-origin: 246.435px 208.006px;" id="elh5a5hrfahqg" class="animable"></path><path d="M250.91,217l.08,0a8.9,8.9,0,0,0,6.3-1.92.2.2,0,0,0,0-.28.2.2,0,0,0-.28,0,8.67,8.67,0,0,1-6,1.83.2.2,0,0,0-.13.36Z" style="fill: rgb(38, 50, 56); transform-origin: 254.073px 215.887px;" id="el1smke39d1e7" class="animable"></path><path d="M262.34,199.41a.38.38,0,0,0,.37,0,.39.39,0,0,0,.12-.54,5.78,5.78,0,0,0-4.55-2.83.39.39,0,1,0,0,.77,5.08,5.08,0,0,1,3.9,2.48A.44.44,0,0,0,262.34,199.41Z" style="fill: rgb(38, 50, 56); transform-origin: 260.36px 197.747px;" id="elrrg1971rfbl" class="animable"></path><path d="M253.61,202.92a.39.39,0,0,0-.35.66,5.86,5.86,0,0,0,5.08,1.73.4.4,0,0,0,.3-.47.39.39,0,0,0-.46-.3,5.05,5.05,0,0,1-4.37-1.51A.4.4,0,0,0,253.61,202.92Z" style="fill: rgb(38, 50, 56); transform-origin: 255.896px 204.143px;" id="elvyj5ecru4jk" class="animable"></path><path d="M239.86,201.5a.37.37,0,0,0-.35.1.4.4,0,0,0,0,.56,5.84,5.84,0,0,0,5.08,1.72.39.39,0,0,0,.3-.46.4.4,0,0,0-.47-.3,5,5,0,0,1-4.36-1.52A.42.42,0,0,0,239.86,201.5Z" style="fill: rgb(38, 50, 56); transform-origin: 242.147px 202.718px;" id="el7nmoibo5zi9" class="animable"></path><path d="M241,195.58a.39.39,0,0,0,.4,0,5,5,0,0,1,4.52-1,.4.4,0,0,0,.5-.24.39.39,0,0,0-.24-.5,5.85,5.85,0,0,0-5.26,1.08.39.39,0,0,0-.07.55A.33.33,0,0,0,241,195.58Z" style="fill: rgb(38, 50, 56); transform-origin: 243.605px 194.628px;" id="elaj6gzdljmb" class="animable"></path><path d="M283.41,322.61l.42,4.68c.18.37-.25.74-.85.74H230c-.47,0-.86-.23-.89-.53l-.47-4.69c0-.32.38-.6.89-.6h53A.94.94,0,0,1,283.41,322.61Z" style="fill: rgb(97, 245, 182); transform-origin: 256.256px 325.117px;" id="elxgd7kk0phu9" class="animable"></path><g id="elln4q4l644l9"><path d="M283.41,322.61l.42,4.68c.18.37-.25.74-.85.74H230c-.47,0-.86-.23-.89-.53l-.47-4.69c0-.32.38-.6.89-.6h53A.94.94,0,0,1,283.41,322.61Z" style="opacity: 0.3; transform-origin: 256.256px 325.117px;" class="animable"></path></g><path d="M276.29,328.54h1.42c.28,0,.5-.15.48-.33l-.67-6.09c0-.18-.26-.32-.55-.32h-1.42c-.28,0-.5.14-.48.32l.67,6.09C275.76,328.39,276,328.54,276.29,328.54Z" style="fill: rgb(38, 50, 56); transform-origin: 276.63px 325.17px;" id="elofrrk1l7pga" class="animable"></path><path d="M234,328.54h1.42c.28,0,.49-.15.47-.33l-.66-6.09c0-.18-.27-.32-.55-.32h-1.42c-.28,0-.5.14-.48.32l.67,6.09C233.47,328.39,233.71,328.54,234,328.54Z" style="fill: rgb(38, 50, 56); transform-origin: 234.335px 325.17px;" id="elwp6c30t9jy9" class="animable"></path><path d="M255.14,328.54h1.42c.29,0,.5-.15.48-.33l-.66-6.09c0-.18-.27-.32-.55-.32h-1.42c-.29,0-.5.14-.48.32l.66,6.09C254.61,328.39,254.86,328.54,255.14,328.54Z" style="fill: rgb(38, 50, 56); transform-origin: 255.485px 325.17px;" id="elqg1zfv6ykgb" class="animable"></path><path d="M296.56,263l4.29,23.12c.73,3.84,1.47,7.67,2.25,11.46.38,1.89.82,3.76,1.23,5.61l.66,2.73.64,2.34a7.69,7.69,0,0,0,1.85,2.77,26.3,26.3,0,0,0,3.69,3.13,69.58,69.58,0,0,0,9.46,5.49c3.38,1.68,6.91,3.21,10.48,4.67s7.26,2.83,10.84,4.12l-1.53,6.48a126.65,126.65,0,0,1-23.74-6,70.37,70.37,0,0,1-11.61-5.34,36.42,36.42,0,0,1-5.68-4.11,18.9,18.9,0,0,1-5-6.79l-.23-.57-.15-.43-.27-.76-.53-1.54-.93-3q-.88-3-1.63-5.9-1.55-5.86-2.81-11.72c-1.74-7.82-3.23-15.61-4.51-23.52Z" style="fill: rgb(206, 122, 99); transform-origin: 312.64px 298.96px;" id="el3cnc7h5s6tx" class="animable"></path><path d="M291.91,247.49c5.25,1.59,11.75,18.47,11.75,18.47L283.3,280.52s-7.62-13.9-5.41-20.68C280.18,252.78,285.92,245.67,291.91,247.49Z" style="fill: rgb(97, 245, 182); transform-origin: 290.574px 263.861px;" id="elep7tbo6mp1" class="animable"></path><path d="M339.35,328.78l12.23-3.1-5.83,11.74s-8.27.36-11-4.25Z" style="fill: rgb(206, 122, 99); transform-origin: 343.165px 331.553px;" id="el8y8ggy1o3hy" class="animable"></path><polygon points="361.46 330.29 356.05 339.86 345.75 337.57 351.58 325.83 361.46 330.29" style="fill: rgb(206, 122, 99); transform-origin: 353.605px 332.845px;" id="elk463ia3r5up" class="animable"></polygon></g><defs>     <filter id="active" height="200%">         <feMorphology in="SourceAlpha" result="DILATED" operator="dilate" radius="2"></feMorphology>                <feFlood flood-color="#32DFEC" flood-opacity="1" result="PINK"></feFlood>        <feComposite in="PINK" in2="DILATED" operator="in" result="OUTLINE"></feComposite>        <feMerge>            <feMergeNode in="OUTLINE"></feMergeNode>            <feMergeNode in="SourceGraphic"></feMergeNode>        </feMerge>    </filter>    <filter id="hover" height="200%">        <feMorphology in="SourceAlpha" result="DILATED" operator="dilate" radius="2"></feMorphology>                <feFlood flood-color="#ff0000" flood-opacity="0.5" result="PINK"></feFlood>        <feComposite in="PINK" in2="DILATED" operator="in" result="OUTLINE"></feComposite>        <feMerge>            <feMergeNode in="OUTLINE"></feMergeNode>            <feMergeNode in="SourceGraphic"></feMergeNode>        </feMerge>            <feColorMatrix type="matrix" values="0   0   0   0   0                0   1   0   0   0                0   0   0   0   0                0   0   0   1   0 "></feColorMatrix>    </filter></defs></svg>